<svg preserveAspectRatio="none" width="100%" height="100%" overflow="visible" style="display: block;" viewBox="0 0 1774.88 726.243" fill="none" xmlns="http://www.w3.org/2000/svg">
<g id="Graphic">
<rect id="Rectangle 4" x="442.804" y="575.153" width="137.976" height="137.976" fill="var(--fill-0, white)" fill-opacity="0.6"/>
<g id="YSB">
<path d="M243.712 436.529L9.91821e-05 15.6603H142.9L307.332 311.247L470.786 15.6603H613.685L370.952 436.529V710.583H243.712V436.529Z" fill="var(--fill-0, white)" fill-opacity="0.8"/>
<path d="M896.433 726.243C839.012 726.243 789.422 716.455 747.661 696.88C705.9 676.652 672.949 648.268 648.806 611.728C624.663 575.187 610.634 532.774 606.719 484.488L735.916 476.658C740.483 507.326 749.292 533.1 762.343 553.98C775.393 574.208 793.01 589.868 815.196 600.961C838.034 611.401 865.765 616.621 898.391 616.621C939.499 616.621 971.146 609.118 993.331 594.11C1016.17 578.45 1027.59 555.938 1027.59 526.575C1027.59 507.652 1023.02 491.666 1013.88 478.616C1004.75 464.913 988.111 452.515 963.968 441.423C939.825 429.677 904.59 418.259 858.261 407.166C798.883 393.463 752.229 378.455 718.298 362.143C684.368 345.178 659.572 324.297 643.912 299.502C628.904 274.706 621.4 243.386 621.4 205.541C621.4 165.085 631.188 129.523 650.763 98.8553C670.991 67.5348 700.028 43.3919 737.873 26.4267C775.719 8.80895 820.416 9.15527e-05 871.964 9.15527e-05C925.47 9.15527e-05 971.798 9.78772 1010.95 29.363C1050.1 48.9383 1080.77 76.0174 1102.95 110.6C1125.14 145.183 1138.84 185.313 1144.06 230.988L1015.84 236.861C1013.23 211.413 1005.73 189.228 993.331 170.305C980.933 150.73 964.294 135.722 943.414 125.282C923.186 114.842 898.717 109.622 870.007 109.622C833.466 109.622 804.429 118.104 782.897 135.07C761.364 151.382 750.597 173.241 750.597 200.647C750.597 219.569 755.165 235.23 764.3 247.627C773.435 260.025 788.769 270.791 810.302 279.927C832.487 288.409 864.786 297.544 907.2 307.332C968.535 320.382 1017.47 337.021 1054.01 357.249C1090.55 376.824 1116.66 399.988 1132.32 426.741C1148.63 452.842 1156.78 483.836 1156.78 519.724C1156.78 561.484 1146.02 598.025 1124.49 629.345C1102.95 660.013 1072.28 683.83 1032.48 700.795C993.331 717.76 947.981 726.243 896.433 726.243Z" fill="var(--fill-0, white)" fill-opacity="0.8"/>
<path d="M1225.79 15.6603H1486.15C1571.62 15.6603 1636.22 30.9943 1679.94 61.6622C1723.66 92.3301 1745.52 139.637 1745.52 203.583C1745.52 232.946 1739.32 258.72 1726.92 280.905C1715.18 302.438 1697.56 319.403 1674.07 331.801C1650.58 344.199 1622.85 351.05 1590.87 352.355L1589.9 350.398C1648.62 352.355 1693.97 368.342 1725.94 398.357C1758.57 428.372 1774.88 468.828 1774.88 519.724C1774.88 582.365 1753.02 629.998 1709.3 662.623C1665.59 694.596 1602.95 710.583 1521.38 710.583H1225.79V15.6603ZM1515.51 602.919C1555.96 602.919 1587.61 594.762 1610.45 578.45C1633.29 561.484 1644.71 537.341 1644.71 506.021C1644.71 474.048 1633.29 449.579 1610.45 432.614C1588.26 415.649 1556.62 407.166 1515.51 407.166H1353.03V602.919H1515.51ZM1482.23 307.332C1524.64 307.332 1557.27 299.502 1580.11 283.842C1603.6 267.529 1615.34 244.691 1615.34 215.328C1615.34 184.66 1603.92 161.822 1581.09 146.815C1558.9 131.154 1525.95 123.324 1482.23 123.324H1353.03V307.332H1482.23Z" fill="var(--fill-0, white)" fill-opacity="0.8"/>
</g>
</g>
</svg>
